<?xml version="1.0" encoding="iso-8859-1"?>
<!-- Generator: Adobe Illustrator 19.0.0, SVG Export Plug-In . SVG Version: 6.00 Build 0)  -->
<svg version="1.1" id="Layer_1" xmlns="http://www.w3.org/2000/svg" xmlns:xlink="http://www.w3.org/1999/xlink" x="0px" y="0px"
	 viewBox="0 0 512 512" style="enable-background:new 0 0 512 512;" xml:space="preserve">
<path style="fill:#334F55;" d="M440.18,220.692c-0.023-1.007-0.211-2.013-0.566-2.975L361.375,6.013C360.04,2.4,356.593,0,352.742,0
	s-7.299,2.4-8.634,6.014l-48.706,131.784c-25.892-4.099-52.854-4.081-78.719-0.018L167.987,6.014C166.652,2.4,163.204,0,159.353,0
	s-7.299,2.4-8.634,6.014L72.481,217.717c-0.341,0.926-0.53,1.888-0.566,2.849c-24.117,31.254-36.822,67.227-36.822,104.467
	C35.092,428.126,134.193,512,256,512s220.908-83.874,220.908-186.966C476.908,287.847,464.234,251.919,440.18,220.692z"/>
<path style="fill:#D8D8D8;" d="M256,493.591c-111.658,0-202.499-75.614-202.499-168.557c0-35.11,12.8-69.088,37.011-98.247
	c2.099-2.526,2.679-5.959,1.573-9.007l67.267-182.022l42.719,115.596c1.559,4.225,5.928,6.688,10.355,5.852
	c28.458-5.42,58.701-5.438,87.231,0.018c4.396,0.827,8.8-1.627,10.355-5.852l42.728-115.614l67.223,181.888
	c-1.169,3.083-0.602,6.58,1.524,9.142c24.211,29.168,37.011,63.137,37.011,98.247C458.499,417.977,367.658,493.591,256,493.591z"/>
<g>
	<path style="fill:#334F55;" d="M173.254,272.782c10.153,0,18.409-8.261,18.409-18.409c0-10.148-8.256-18.409-18.409-18.409
		c-10.153,0-18.409,8.261-18.409,18.409C154.845,264.522,163.101,272.782,173.254,272.782z"/>
	<path style="fill:#334F55;" d="M338.935,235.964c-10.153,0-18.409,8.261-18.409,18.409c0,10.148,8.256,18.409,18.409,18.409
		c10.153,0,18.409-8.261,18.409-18.409C357.344,244.225,349.088,235.964,338.935,235.964z"/>
	<path style="fill:#334F55;" d="M338.935,364.827c0,20.306-16.517,36.818-36.818,36.818c-19.682,0-35.669-15.558-36.635-35.008
		l26.459-52.92c1.425-2.849,1.272-6.238-0.405-8.953c-1.676-2.715-4.638-4.368-7.829-4.368h-55.227
		c-3.191,0-6.153,1.654-7.829,4.368c-1.676,2.714-1.829,6.103-0.405,8.953l26.459,52.92c-0.966,19.45-16.953,35.008-36.635,35.008
		c-20.301,0-36.818-16.512-36.818-36.818v-9.204h-18.409v9.204c0,30.454,24.773,55.227,55.227,55.227
		c19.199,0,36.123-9.857,46.022-24.764c9.899,14.907,26.823,24.764,46.022,24.764c30.454,0,55.227-24.773,55.227-55.227v-9.204
		h-18.409V364.827z"/>
</g>
<polygon style="fill:#D8D8D8;" points="268.814,318.805 256.094,344.243 243.375,318.805 "/>
<g>
</g>
<g>
</g>
<g>
</g>
<g>
</g>
<g>
</g>
<g>
</g>
<g>
</g>
<g>
</g>
<g>
</g>
<g>
</g>
<g>
</g>
<g>
</g>
<g>
</g>
<g>
</g>
<g>
</g>
</svg>
